<mxfile host="app.diagrams.net" modified="2023-10-25T14:57:16.755Z" agent="Mozilla/5.0 (X11; Ubuntu; Linux x86_64; rv:109.0) Gecko/20100101 Firefox/118.0" etag="pMk06MGMchk0vSflB9De" version="22.0.8" type="device">
  <diagram id="C5RBs43oDa-KdzZeNtuy" name="Page-1">
    <mxGraphModel dx="2741" dy="2071" grid="1" gridSize="10" guides="1" tooltips="1" connect="1" arrows="1" fold="1" page="1" pageScale="1" pageWidth="827" pageHeight="1169" math="0" shadow="0">
      <root>
        <mxCell id="WIyWlLk6GJQsqaUBKTNV-0" />
        <mxCell id="WIyWlLk6GJQsqaUBKTNV-1" parent="WIyWlLk6GJQsqaUBKTNV-0" />
        <mxCell id="jOGppjz87xmyUM8sD9id-5" value="" style="edgeStyle=orthogonalEdgeStyle;rounded=0;orthogonalLoop=1;jettySize=auto;html=1;" parent="WIyWlLk6GJQsqaUBKTNV-1" source="jOGppjz87xmyUM8sD9id-0" target="jOGppjz87xmyUM8sD9id-3" edge="1">
          <mxGeometry relative="1" as="geometry" />
        </mxCell>
        <mxCell id="jOGppjz87xmyUM8sD9id-27" value="" style="edgeStyle=orthogonalEdgeStyle;rounded=0;orthogonalLoop=1;jettySize=auto;html=1;fillColor=#f8cecc;strokeColor=#b85450;" parent="WIyWlLk6GJQsqaUBKTNV-1" source="jOGppjz87xmyUM8sD9id-0" target="jOGppjz87xmyUM8sD9id-18" edge="1">
          <mxGeometry relative="1" as="geometry" />
        </mxCell>
        <mxCell id="jOGppjz87xmyUM8sD9id-0" value="&lt;div&gt;Pagina de Bienvenida&lt;/div&gt;&lt;div&gt;(index.php)&lt;br&gt;&lt;/div&gt;" style="rounded=1;whiteSpace=wrap;html=1;fontSize=12;glass=0;strokeWidth=1;shadow=0;" parent="WIyWlLk6GJQsqaUBKTNV-1" vertex="1">
          <mxGeometry x="355" y="160" width="130" height="40" as="geometry" />
        </mxCell>
        <mxCell id="jOGppjz87xmyUM8sD9id-2" value="" style="edgeStyle=orthogonalEdgeStyle;rounded=0;orthogonalLoop=1;jettySize=auto;html=1;" parent="WIyWlLk6GJQsqaUBKTNV-1" source="jOGppjz87xmyUM8sD9id-1" target="jOGppjz87xmyUM8sD9id-0" edge="1">
          <mxGeometry relative="1" as="geometry" />
        </mxCell>
        <mxCell id="jOGppjz87xmyUM8sD9id-1" value="Se inicia la aplicacion y se entra en la web" style="strokeWidth=2;html=1;shape=mxgraph.flowchart.start_1;whiteSpace=wrap;" parent="WIyWlLk6GJQsqaUBKTNV-1" vertex="1">
          <mxGeometry x="340" width="160" height="60" as="geometry" />
        </mxCell>
        <mxCell id="jOGppjz87xmyUM8sD9id-13" style="edgeStyle=orthogonalEdgeStyle;rounded=0;orthogonalLoop=1;jettySize=auto;html=1;exitX=1;exitY=0.5;exitDx=0;exitDy=0;entryX=0;entryY=0.5;entryDx=0;entryDy=0;" parent="WIyWlLk6GJQsqaUBKTNV-1" source="jOGppjz87xmyUM8sD9id-3" target="jOGppjz87xmyUM8sD9id-12" edge="1">
          <mxGeometry relative="1" as="geometry" />
        </mxCell>
        <mxCell id="jOGppjz87xmyUM8sD9id-16" value="" style="edgeStyle=orthogonalEdgeStyle;rounded=0;orthogonalLoop=1;jettySize=auto;html=1;" parent="WIyWlLk6GJQsqaUBKTNV-1" source="jOGppjz87xmyUM8sD9id-3" target="jOGppjz87xmyUM8sD9id-15" edge="1">
          <mxGeometry relative="1" as="geometry" />
        </mxCell>
        <mxCell id="jOGppjz87xmyUM8sD9id-3" value="&lt;div&gt;&lt;br&gt;&lt;/div&gt;&lt;div&gt;Se cambia el idioma?&lt;/div&gt;" style="rhombus;whiteSpace=wrap;html=1;shadow=0;fontFamily=Helvetica;fontSize=12;align=center;strokeWidth=1;spacing=6;spacingTop=-4;" parent="WIyWlLk6GJQsqaUBKTNV-1" vertex="1">
          <mxGeometry x="567" y="220" width="100" height="100" as="geometry" />
        </mxCell>
        <mxCell id="jOGppjz87xmyUM8sD9id-11" value="Si" style="text;html=1;strokeColor=none;fillColor=none;align=center;verticalAlign=middle;whiteSpace=wrap;rounded=0;" parent="WIyWlLk6GJQsqaUBKTNV-1" vertex="1">
          <mxGeometry x="670" y="230" width="60" height="30" as="geometry" />
        </mxCell>
        <mxCell id="jOGppjz87xmyUM8sD9id-14" style="edgeStyle=orthogonalEdgeStyle;rounded=0;orthogonalLoop=1;jettySize=auto;html=1;exitX=0.5;exitY=0;exitDx=0;exitDy=0;entryX=1;entryY=0.25;entryDx=0;entryDy=0;" parent="WIyWlLk6GJQsqaUBKTNV-1" source="jOGppjz87xmyUM8sD9id-12" target="jOGppjz87xmyUM8sD9id-0" edge="1">
          <mxGeometry relative="1" as="geometry">
            <Array as="points">
              <mxPoint x="603" y="160" />
              <mxPoint x="603" y="170" />
            </Array>
          </mxGeometry>
        </mxCell>
        <mxCell id="jOGppjz87xmyUM8sD9id-12" value="Recarga la pagina con el idioma cargado" style="rounded=1;whiteSpace=wrap;html=1;fontSize=12;glass=0;strokeWidth=1;shadow=0;" parent="WIyWlLk6GJQsqaUBKTNV-1" vertex="1">
          <mxGeometry x="720" y="160" width="140" height="40" as="geometry" />
        </mxCell>
        <mxCell id="jOGppjz87xmyUM8sD9id-30" style="edgeStyle=orthogonalEdgeStyle;rounded=0;orthogonalLoop=1;jettySize=auto;html=1;exitX=1;exitY=0.5;exitDx=0;exitDy=0;entryX=1;entryY=0;entryDx=0;entryDy=0;" parent="WIyWlLk6GJQsqaUBKTNV-1" source="jOGppjz87xmyUM8sD9id-15" target="jOGppjz87xmyUM8sD9id-0" edge="1">
          <mxGeometry relative="1" as="geometry">
            <Array as="points">
              <mxPoint x="880" y="380" />
              <mxPoint x="880" y="120" />
              <mxPoint x="485" y="120" />
            </Array>
          </mxGeometry>
        </mxCell>
        <mxCell id="jOGppjz87xmyUM8sD9id-15" value="La pagina se mantiene la espera del usuario" style="rounded=1;whiteSpace=wrap;html=1;fontSize=12;glass=0;strokeWidth=1;shadow=0;" parent="WIyWlLk6GJQsqaUBKTNV-1" vertex="1">
          <mxGeometry x="552" y="360" width="130" height="40" as="geometry" />
        </mxCell>
        <mxCell id="jOGppjz87xmyUM8sD9id-17" value="No" style="text;html=1;strokeColor=none;fillColor=none;align=center;verticalAlign=middle;whiteSpace=wrap;rounded=0;" parent="WIyWlLk6GJQsqaUBKTNV-1" vertex="1">
          <mxGeometry x="600" y="320" width="60" height="30" as="geometry" />
        </mxCell>
        <mxCell id="jOGppjz87xmyUM8sD9id-29" style="edgeStyle=orthogonalEdgeStyle;rounded=0;orthogonalLoop=1;jettySize=auto;html=1;exitX=1;exitY=0.5;exitDx=0;exitDy=0;entryX=0;entryY=0;entryDx=0;entryDy=0;" parent="WIyWlLk6GJQsqaUBKTNV-1" source="jOGppjz87xmyUM8sD9id-18" target="jOGppjz87xmyUM8sD9id-15" edge="1">
          <mxGeometry relative="1" as="geometry" />
        </mxCell>
        <mxCell id="jOGppjz87xmyUM8sD9id-59" style="edgeStyle=orthogonalEdgeStyle;rounded=0;orthogonalLoop=1;jettySize=auto;html=1;exitX=0.5;exitY=1;exitDx=0;exitDy=0;entryX=0.5;entryY=0;entryDx=0;entryDy=0;" parent="WIyWlLk6GJQsqaUBKTNV-1" source="jOGppjz87xmyUM8sD9id-18" target="jOGppjz87xmyUM8sD9id-58" edge="1">
          <mxGeometry relative="1" as="geometry" />
        </mxCell>
        <mxCell id="jOGppjz87xmyUM8sD9id-18" value="&lt;br&gt;&lt;div&gt;El usuario hace&amp;nbsp;&lt;/div&gt;&lt;div&gt;click en el boton Jugar&lt;/div&gt;" style="rhombus;whiteSpace=wrap;html=1;" parent="WIyWlLk6GJQsqaUBKTNV-1" vertex="1">
          <mxGeometry x="360" y="260" width="120" height="140" as="geometry" />
        </mxCell>
        <mxCell id="jOGppjz87xmyUM8sD9id-22" value="No" style="text;html=1;strokeColor=none;fillColor=none;align=center;verticalAlign=middle;whiteSpace=wrap;rounded=0;" parent="WIyWlLk6GJQsqaUBKTNV-1" vertex="1">
          <mxGeometry x="485" y="310" width="60" height="30" as="geometry" />
        </mxCell>
        <mxCell id="jOGppjz87xmyUM8sD9id-23" value="Si" style="text;html=1;strokeColor=none;fillColor=none;align=center;verticalAlign=middle;whiteSpace=wrap;rounded=0;" parent="WIyWlLk6GJQsqaUBKTNV-1" vertex="1">
          <mxGeometry x="400" y="400" width="60" height="30" as="geometry" />
        </mxCell>
        <mxCell id="jOGppjz87xmyUM8sD9id-43" value="" style="edgeStyle=orthogonalEdgeStyle;rounded=0;orthogonalLoop=1;jettySize=auto;html=1;fillColor=#fff2cc;strokeColor=#d6b656;" parent="WIyWlLk6GJQsqaUBKTNV-1" source="jOGppjz87xmyUM8sD9id-24" target="jOGppjz87xmyUM8sD9id-42" edge="1">
          <mxGeometry relative="1" as="geometry" />
        </mxCell>
        <mxCell id="jOGppjz87xmyUM8sD9id-24" value="Carga la pagina con el juego y una de las 3 preguntas cargadas(game.php)" style="rounded=1;whiteSpace=wrap;html=1;fontSize=12;glass=0;strokeWidth=1;shadow=0;" parent="WIyWlLk6GJQsqaUBKTNV-1" vertex="1">
          <mxGeometry x="320" y="510" width="200" height="50" as="geometry" />
        </mxCell>
        <mxCell id="jOGppjz87xmyUM8sD9id-39" value="" style="edgeStyle=orthogonalEdgeStyle;rounded=0;orthogonalLoop=1;jettySize=auto;html=1;exitX=0;exitY=0.5;exitDx=0;exitDy=0;entryX=0.5;entryY=0;entryDx=0;entryDy=0;" parent="WIyWlLk6GJQsqaUBKTNV-1" source="jOGppjz87xmyUM8sD9id-33" target="jOGppjz87xmyUM8sD9id-38" edge="1">
          <mxGeometry relative="1" as="geometry">
            <mxPoint x="82.5" y="265" as="sourcePoint" />
          </mxGeometry>
        </mxCell>
        <mxCell id="jOGppjz87xmyUM8sD9id-83" style="edgeStyle=orthogonalEdgeStyle;rounded=0;orthogonalLoop=1;jettySize=auto;html=1;exitX=1;exitY=1;exitDx=0;exitDy=0;entryX=0.25;entryY=0;entryDx=0;entryDy=0;fillColor=#ffe6cc;strokeColor=#d79b00;" parent="WIyWlLk6GJQsqaUBKTNV-1" source="jOGppjz87xmyUM8sD9id-33" target="jOGppjz87xmyUM8sD9id-15" edge="1">
          <mxGeometry relative="1" as="geometry">
            <Array as="points">
              <mxPoint x="230" y="240" />
              <mxPoint x="550" y="240" />
              <mxPoint x="550" y="310" />
              <mxPoint x="585" y="310" />
            </Array>
          </mxGeometry>
        </mxCell>
        <mxCell id="jOGppjz87xmyUM8sD9id-33" value="&lt;br&gt;&lt;div&gt;El usuario hace&amp;nbsp;&lt;/div&gt;&lt;div&gt;click en el boton Ranking&lt;/div&gt;" style="rhombus;whiteSpace=wrap;html=1;shadow=0;fontFamily=Helvetica;fontSize=12;align=center;strokeWidth=1;spacing=6;spacingTop=-4;" parent="WIyWlLk6GJQsqaUBKTNV-1" vertex="1">
          <mxGeometry x="140" y="200" width="120" height="120" as="geometry" />
        </mxCell>
        <mxCell id="jOGppjz87xmyUM8sD9id-35" value="No" style="text;html=1;strokeColor=none;fillColor=none;align=center;verticalAlign=middle;whiteSpace=wrap;rounded=0;" parent="WIyWlLk6GJQsqaUBKTNV-1" vertex="1">
          <mxGeometry x="280" y="220" width="60" height="30" as="geometry" />
        </mxCell>
        <mxCell id="jOGppjz87xmyUM8sD9id-90" value="" style="edgeStyle=orthogonalEdgeStyle;rounded=0;orthogonalLoop=1;jettySize=auto;html=1;" parent="WIyWlLk6GJQsqaUBKTNV-1" source="jOGppjz87xmyUM8sD9id-38" target="jOGppjz87xmyUM8sD9id-89" edge="1">
          <mxGeometry relative="1" as="geometry" />
        </mxCell>
        <mxCell id="jOGppjz87xmyUM8sD9id-38" value="Carga la pagina con el ranking (ranking.php)" style="rounded=1;whiteSpace=wrap;html=1;fontSize=12;glass=0;strokeWidth=1;shadow=0;" parent="WIyWlLk6GJQsqaUBKTNV-1" vertex="1">
          <mxGeometry x="-77.5" y="285" width="130" height="40" as="geometry" />
        </mxCell>
        <mxCell id="jOGppjz87xmyUM8sD9id-40" value="Si" style="text;html=1;strokeColor=none;fillColor=none;align=center;verticalAlign=middle;whiteSpace=wrap;rounded=0;" parent="WIyWlLk6GJQsqaUBKTNV-1" vertex="1">
          <mxGeometry y="240" width="60" height="30" as="geometry" />
        </mxCell>
        <mxCell id="jOGppjz87xmyUM8sD9id-54" style="edgeStyle=orthogonalEdgeStyle;rounded=0;orthogonalLoop=1;jettySize=auto;html=1;exitX=1;exitY=0.5;exitDx=0;exitDy=0;entryX=0;entryY=0.5;entryDx=0;entryDy=0;" parent="WIyWlLk6GJQsqaUBKTNV-1" source="jOGppjz87xmyUM8sD9id-42" target="jOGppjz87xmyUM8sD9id-53" edge="1">
          <mxGeometry relative="1" as="geometry" />
        </mxCell>
        <mxCell id="jOGppjz87xmyUM8sD9id-71" value="" style="edgeStyle=orthogonalEdgeStyle;rounded=0;orthogonalLoop=1;jettySize=auto;html=1;" parent="WIyWlLk6GJQsqaUBKTNV-1" source="jOGppjz87xmyUM8sD9id-42" target="jOGppjz87xmyUM8sD9id-70" edge="1">
          <mxGeometry relative="1" as="geometry" />
        </mxCell>
        <mxCell id="jOGppjz87xmyUM8sD9id-42" value="Responde correctamente la pregunta?" style="rhombus;whiteSpace=wrap;html=1;shadow=0;fontFamily=Helvetica;fontSize=12;align=center;strokeWidth=1;spacing=6;spacingTop=-4;" parent="WIyWlLk6GJQsqaUBKTNV-1" vertex="1">
          <mxGeometry x="370" y="680" width="100" height="100" as="geometry" />
        </mxCell>
        <mxCell id="jOGppjz87xmyUM8sD9id-64" style="edgeStyle=orthogonalEdgeStyle;rounded=0;orthogonalLoop=1;jettySize=auto;html=1;exitX=0.5;exitY=1;exitDx=0;exitDy=0;entryX=1;entryY=0.5;entryDx=0;entryDy=0;" parent="WIyWlLk6GJQsqaUBKTNV-1" source="jOGppjz87xmyUM8sD9id-46" target="jOGppjz87xmyUM8sD9id-50" edge="1">
          <mxGeometry relative="1" as="geometry" />
        </mxCell>
        <mxCell id="jOGppjz87xmyUM8sD9id-69" value="" style="edgeStyle=orthogonalEdgeStyle;rounded=0;orthogonalLoop=1;jettySize=auto;html=1;" parent="WIyWlLk6GJQsqaUBKTNV-1" source="jOGppjz87xmyUM8sD9id-46" target="jOGppjz87xmyUM8sD9id-68" edge="1">
          <mxGeometry relative="1" as="geometry" />
        </mxCell>
        <mxCell id="jOGppjz87xmyUM8sD9id-46" value="Es la ultima pregunta?" style="rhombus;whiteSpace=wrap;html=1;shadow=0;fontFamily=Helvetica;fontSize=12;align=center;strokeWidth=1;spacing=6;spacingTop=-4;" parent="WIyWlLk6GJQsqaUBKTNV-1" vertex="1">
          <mxGeometry x="780" y="680" width="100" height="100" as="geometry" />
        </mxCell>
        <mxCell id="jOGppjz87xmyUM8sD9id-47" value="Si" style="text;html=1;strokeColor=none;fillColor=none;align=center;verticalAlign=middle;whiteSpace=wrap;rounded=0;" parent="WIyWlLk6GJQsqaUBKTNV-1" vertex="1">
          <mxGeometry x="485" y="705" width="60" height="30" as="geometry" />
        </mxCell>
        <mxCell id="jOGppjz87xmyUM8sD9id-52" style="edgeStyle=orthogonalEdgeStyle;rounded=0;orthogonalLoop=1;jettySize=auto;html=1;exitX=0;exitY=0.5;exitDx=0;exitDy=0;entryX=0.5;entryY=1;entryDx=0;entryDy=0;" parent="WIyWlLk6GJQsqaUBKTNV-1" source="jOGppjz87xmyUM8sD9id-50" target="jOGppjz87xmyUM8sD9id-42" edge="1">
          <mxGeometry relative="1" as="geometry" />
        </mxCell>
        <mxCell id="jOGppjz87xmyUM8sD9id-50" value="Muestra la proxima pregunta" style="rounded=1;whiteSpace=wrap;html=1;fontSize=12;glass=0;strokeWidth=1;shadow=0;" parent="WIyWlLk6GJQsqaUBKTNV-1" vertex="1">
          <mxGeometry x="555" y="830" width="130" height="40" as="geometry" />
        </mxCell>
        <mxCell id="jOGppjz87xmyUM8sD9id-56" style="edgeStyle=orthogonalEdgeStyle;rounded=0;orthogonalLoop=1;jettySize=auto;html=1;exitX=1;exitY=0.5;exitDx=0;exitDy=0;entryX=0;entryY=0.5;entryDx=0;entryDy=0;" parent="WIyWlLk6GJQsqaUBKTNV-1" source="jOGppjz87xmyUM8sD9id-53" target="jOGppjz87xmyUM8sD9id-46" edge="1">
          <mxGeometry relative="1" as="geometry" />
        </mxCell>
        <mxCell id="jOGppjz87xmyUM8sD9id-65" style="edgeStyle=orthogonalEdgeStyle;rounded=0;orthogonalLoop=1;jettySize=auto;html=1;exitX=0.5;exitY=0;exitDx=0;exitDy=0;entryX=1;entryY=0.5;entryDx=0;entryDy=0;fillColor=#e1d5e7;strokeColor=#9673a6;" parent="WIyWlLk6GJQsqaUBKTNV-1" source="jOGppjz87xmyUM8sD9id-53" target="jOGppjz87xmyUM8sD9id-58" edge="1">
          <mxGeometry relative="1" as="geometry" />
        </mxCell>
        <mxCell id="jOGppjz87xmyUM8sD9id-53" value="&lt;div&gt;Ha&amp;nbsp;&lt;/div&gt;&lt;div&gt;&amp;nbsp;respondido las&lt;/div&gt;&lt;div&gt;3 preguntas&amp;nbsp;&lt;/div&gt;&lt;div&gt;del nivel?&lt;/div&gt;" style="rhombus;whiteSpace=wrap;html=1;shadow=0;fontFamily=Helvetica;fontSize=12;align=center;strokeWidth=1;spacing=6;spacingTop=-4;" parent="WIyWlLk6GJQsqaUBKTNV-1" vertex="1">
          <mxGeometry x="560" y="680" width="120" height="100" as="geometry" />
        </mxCell>
        <mxCell id="jOGppjz87xmyUM8sD9id-61" value="" style="edgeStyle=orthogonalEdgeStyle;rounded=0;orthogonalLoop=1;jettySize=auto;html=1;" parent="WIyWlLk6GJQsqaUBKTNV-1" source="jOGppjz87xmyUM8sD9id-58" target="jOGppjz87xmyUM8sD9id-24" edge="1">
          <mxGeometry relative="1" as="geometry" />
        </mxCell>
        <mxCell id="jOGppjz87xmyUM8sD9id-58" value="Lee las preguntas del &lt;br&gt;siguiente nivel y las guarda" style="rounded=1;whiteSpace=wrap;html=1;fontSize=12;glass=0;strokeWidth=1;shadow=0;" parent="WIyWlLk6GJQsqaUBKTNV-1" vertex="1">
          <mxGeometry x="320" y="440" width="200" height="40" as="geometry" />
        </mxCell>
        <mxCell id="jOGppjz87xmyUM8sD9id-62" value="No" style="text;html=1;strokeColor=none;fillColor=none;align=center;verticalAlign=middle;whiteSpace=wrap;rounded=0;" parent="WIyWlLk6GJQsqaUBKTNV-1" vertex="1">
          <mxGeometry x="700" y="705" width="60" height="30" as="geometry" />
        </mxCell>
        <mxCell id="jOGppjz87xmyUM8sD9id-67" value="No" style="text;html=1;strokeColor=none;fillColor=none;align=center;verticalAlign=middle;whiteSpace=wrap;rounded=0;" parent="WIyWlLk6GJQsqaUBKTNV-1" vertex="1">
          <mxGeometry x="730" y="830" width="60" height="30" as="geometry" />
        </mxCell>
        <mxCell id="jOGppjz87xmyUM8sD9id-86" style="edgeStyle=orthogonalEdgeStyle;rounded=0;orthogonalLoop=1;jettySize=auto;html=1;exitX=1;exitY=0.5;exitDx=0;exitDy=0;entryX=0;entryY=0.5;entryDx=0;entryDy=0;" parent="WIyWlLk6GJQsqaUBKTNV-1" source="jOGppjz87xmyUM8sD9id-68" target="jOGppjz87xmyUM8sD9id-84" edge="1">
          <mxGeometry relative="1" as="geometry" />
        </mxCell>
        <mxCell id="6C4JWHhxTdaV8eO6Sy8S-8" style="edgeStyle=orthogonalEdgeStyle;rounded=0;orthogonalLoop=1;jettySize=auto;html=1;exitX=0.25;exitY=0;exitDx=0;exitDy=0;entryX=0.5;entryY=1;entryDx=0;entryDy=0;" parent="WIyWlLk6GJQsqaUBKTNV-1" source="jOGppjz87xmyUM8sD9id-68" target="6C4JWHhxTdaV8eO6Sy8S-6" edge="1">
          <mxGeometry relative="1" as="geometry" />
        </mxCell>
        <mxCell id="jOGppjz87xmyUM8sD9id-68" value="Carga la pantalla de felicitaciones" style="rounded=1;whiteSpace=wrap;html=1;fontSize=12;glass=0;strokeWidth=1;shadow=0;" parent="WIyWlLk6GJQsqaUBKTNV-1" vertex="1">
          <mxGeometry x="960" y="705" width="200" height="50" as="geometry" />
        </mxCell>
        <mxCell id="jOGppjz87xmyUM8sD9id-74" value="" style="edgeStyle=orthogonalEdgeStyle;rounded=0;orthogonalLoop=1;jettySize=auto;html=1;" parent="WIyWlLk6GJQsqaUBKTNV-1" source="jOGppjz87xmyUM8sD9id-70" target="jOGppjz87xmyUM8sD9id-73" edge="1">
          <mxGeometry relative="1" as="geometry" />
        </mxCell>
        <mxCell id="jOGppjz87xmyUM8sD9id-70" value="Carga la pantalla de derrota" style="rounded=1;whiteSpace=wrap;html=1;fontSize=12;glass=0;strokeWidth=1;shadow=0;" parent="WIyWlLk6GJQsqaUBKTNV-1" vertex="1">
          <mxGeometry x="80" y="705" width="200" height="50" as="geometry" />
        </mxCell>
        <mxCell id="jOGppjz87xmyUM8sD9id-80" value="" style="edgeStyle=orthogonalEdgeStyle;rounded=0;orthogonalLoop=1;jettySize=auto;html=1;" parent="WIyWlLk6GJQsqaUBKTNV-1" source="jOGppjz87xmyUM8sD9id-73" edge="1">
          <mxGeometry relative="1" as="geometry">
            <mxPoint x="180" y="950" as="targetPoint" />
          </mxGeometry>
        </mxCell>
        <mxCell id="jOGppjz87xmyUM8sD9id-100" style="edgeStyle=orthogonalEdgeStyle;rounded=0;orthogonalLoop=1;jettySize=auto;html=1;exitX=0;exitY=0.5;exitDx=0;exitDy=0;entryX=1;entryY=0.5;entryDx=0;entryDy=0;" parent="WIyWlLk6GJQsqaUBKTNV-1" source="jOGppjz87xmyUM8sD9id-73" target="jOGppjz87xmyUM8sD9id-99" edge="1">
          <mxGeometry relative="1" as="geometry" />
        </mxCell>
        <mxCell id="jOGppjz87xmyUM8sD9id-73" value="&lt;div&gt;Presiona el&amp;nbsp;&lt;/div&gt;&lt;div&gt;boton de guardar puntuacion?&lt;/div&gt;" style="rhombus;whiteSpace=wrap;html=1;shadow=0;fontFamily=Helvetica;fontSize=12;align=center;strokeWidth=1;spacing=6;spacingTop=-4;" parent="WIyWlLk6GJQsqaUBKTNV-1" vertex="1">
          <mxGeometry x="120" y="790" width="120" height="100" as="geometry" />
        </mxCell>
        <mxCell id="jOGppjz87xmyUM8sD9id-107" style="edgeStyle=orthogonalEdgeStyle;rounded=0;orthogonalLoop=1;jettySize=auto;html=1;exitX=0;exitY=0.5;exitDx=0;exitDy=0;entryX=0.25;entryY=0;entryDx=0;entryDy=0;" parent="WIyWlLk6GJQsqaUBKTNV-1" source="jOGppjz87xmyUM8sD9id-81" target="jOGppjz87xmyUM8sD9id-0" edge="1">
          <mxGeometry relative="1" as="geometry">
            <Array as="points">
              <mxPoint x="-250" y="975" />
              <mxPoint x="-250" y="100" />
              <mxPoint x="388" y="100" />
            </Array>
          </mxGeometry>
        </mxCell>
        <mxCell id="jOGppjz87xmyUM8sD9id-81" value="Introduce su nombre y se guarda su registro en el records.txt" style="rounded=1;whiteSpace=wrap;html=1;fontSize=12;glass=0;strokeWidth=1;shadow=0;" parent="WIyWlLk6GJQsqaUBKTNV-1" vertex="1">
          <mxGeometry x="80" y="950" width="200" height="50" as="geometry" />
        </mxCell>
        <mxCell id="jOGppjz87xmyUM8sD9id-82" style="edgeStyle=orthogonalEdgeStyle;rounded=0;orthogonalLoop=1;jettySize=auto;html=1;exitX=0;exitY=0.5;exitDx=0;exitDy=0;entryX=0.5;entryY=0;entryDx=0;entryDy=0;" parent="WIyWlLk6GJQsqaUBKTNV-1" source="jOGppjz87xmyUM8sD9id-0" target="jOGppjz87xmyUM8sD9id-33" edge="1">
          <mxGeometry relative="1" as="geometry" />
        </mxCell>
        <mxCell id="jOGppjz87xmyUM8sD9id-87" style="edgeStyle=orthogonalEdgeStyle;rounded=0;orthogonalLoop=1;jettySize=auto;html=1;exitX=0.5;exitY=1;exitDx=0;exitDy=0;entryX=0.5;entryY=0;entryDx=0;entryDy=0;" parent="WIyWlLk6GJQsqaUBKTNV-1" source="jOGppjz87xmyUM8sD9id-84" target="jOGppjz87xmyUM8sD9id-85" edge="1">
          <mxGeometry relative="1" as="geometry" />
        </mxCell>
        <mxCell id="jOGppjz87xmyUM8sD9id-113" value="" style="edgeStyle=orthogonalEdgeStyle;rounded=0;orthogonalLoop=1;jettySize=auto;html=1;" parent="WIyWlLk6GJQsqaUBKTNV-1" source="jOGppjz87xmyUM8sD9id-84" target="jOGppjz87xmyUM8sD9id-110" edge="1">
          <mxGeometry relative="1" as="geometry" />
        </mxCell>
        <mxCell id="jOGppjz87xmyUM8sD9id-84" value="&lt;div&gt;Presiona el&amp;nbsp;&lt;/div&gt;&lt;div&gt;boton de guardar puntuacion?&lt;/div&gt;" style="rhombus;whiteSpace=wrap;html=1;shadow=0;fontFamily=Helvetica;fontSize=12;align=center;strokeWidth=1;spacing=6;spacingTop=-4;" parent="WIyWlLk6GJQsqaUBKTNV-1" vertex="1">
          <mxGeometry x="1240.5" y="680" width="120" height="100" as="geometry" />
        </mxCell>
        <mxCell id="jOGppjz87xmyUM8sD9id-108" style="edgeStyle=orthogonalEdgeStyle;rounded=0;orthogonalLoop=1;jettySize=auto;html=1;exitX=1;exitY=0.5;exitDx=0;exitDy=0;entryX=0.75;entryY=0;entryDx=0;entryDy=0;" parent="WIyWlLk6GJQsqaUBKTNV-1" source="jOGppjz87xmyUM8sD9id-85" edge="1">
          <mxGeometry relative="1" as="geometry">
            <mxPoint x="1400.5" y="780" as="sourcePoint" />
            <mxPoint x="452.5" y="155" as="targetPoint" />
            <Array as="points">
              <mxPoint x="1421" y="855" />
              <mxPoint x="1421" y="85" />
              <mxPoint x="453" y="85" />
            </Array>
          </mxGeometry>
        </mxCell>
        <mxCell id="jOGppjz87xmyUM8sD9id-85" value="Introduce su nombre y se guarda su registro en el records.txt" style="rounded=1;whiteSpace=wrap;html=1;fontSize=12;glass=0;strokeWidth=1;shadow=0;" parent="WIyWlLk6GJQsqaUBKTNV-1" vertex="1">
          <mxGeometry x="1200.5" y="830" width="200" height="50" as="geometry" />
        </mxCell>
        <mxCell id="jOGppjz87xmyUM8sD9id-91" style="edgeStyle=orthogonalEdgeStyle;rounded=0;orthogonalLoop=1;jettySize=auto;html=1;exitX=0;exitY=0.5;exitDx=0;exitDy=0;entryX=0;entryY=0;entryDx=0;entryDy=0;" parent="WIyWlLk6GJQsqaUBKTNV-1" source="jOGppjz87xmyUM8sD9id-89" target="jOGppjz87xmyUM8sD9id-0" edge="1">
          <mxGeometry relative="1" as="geometry" />
        </mxCell>
        <mxCell id="jOGppjz87xmyUM8sD9id-93" style="edgeStyle=orthogonalEdgeStyle;rounded=0;orthogonalLoop=1;jettySize=auto;html=1;exitX=0;exitY=1;exitDx=0;exitDy=0;entryX=0;entryY=0.5;entryDx=0;entryDy=0;" parent="WIyWlLk6GJQsqaUBKTNV-1" source="jOGppjz87xmyUM8sD9id-89" target="jOGppjz87xmyUM8sD9id-92" edge="1">
          <mxGeometry relative="1" as="geometry">
            <Array as="points">
              <mxPoint x="-41" y="505" />
            </Array>
          </mxGeometry>
        </mxCell>
        <mxCell id="jOGppjz87xmyUM8sD9id-89" value="&lt;div&gt;Presiona el&amp;nbsp;&lt;/div&gt;&lt;div&gt;boton para volver&amp;nbsp;&lt;/div&gt;&lt;div&gt;al inicio?&lt;/div&gt;" style="rhombus;whiteSpace=wrap;html=1;shadow=0;fontFamily=Helvetica;fontSize=12;align=center;strokeWidth=1;spacing=6;spacingTop=-4;" parent="WIyWlLk6GJQsqaUBKTNV-1" vertex="1">
          <mxGeometry x="-70" y="365" width="115" height="100" as="geometry" />
        </mxCell>
        <mxCell id="jOGppjz87xmyUM8sD9id-94" style="edgeStyle=orthogonalEdgeStyle;rounded=0;orthogonalLoop=1;jettySize=auto;html=1;exitX=0.5;exitY=0;exitDx=0;exitDy=0;entryX=0.75;entryY=1;entryDx=0;entryDy=0;" parent="WIyWlLk6GJQsqaUBKTNV-1" source="jOGppjz87xmyUM8sD9id-92" target="jOGppjz87xmyUM8sD9id-38" edge="1">
          <mxGeometry relative="1" as="geometry">
            <Array as="points">
              <mxPoint x="65" y="365" />
              <mxPoint x="20" y="365" />
            </Array>
          </mxGeometry>
        </mxCell>
        <mxCell id="jOGppjz87xmyUM8sD9id-92" value="La pagina se mantiene la espera del usuario" style="rounded=1;whiteSpace=wrap;html=1;fontSize=12;glass=0;strokeWidth=1;shadow=0;" parent="WIyWlLk6GJQsqaUBKTNV-1" vertex="1">
          <mxGeometry y="490" width="130" height="40" as="geometry" />
        </mxCell>
        <mxCell id="jOGppjz87xmyUM8sD9id-95" value="Si" style="text;html=1;strokeColor=none;fillColor=none;align=center;verticalAlign=middle;whiteSpace=wrap;rounded=0;" parent="WIyWlLk6GJQsqaUBKTNV-1" vertex="1">
          <mxGeometry x="160" y="900" width="60" height="30" as="geometry" />
        </mxCell>
        <mxCell id="jOGppjz87xmyUM8sD9id-96" value="No" style="text;html=1;strokeColor=none;fillColor=none;align=center;verticalAlign=middle;whiteSpace=wrap;rounded=0;" parent="WIyWlLk6GJQsqaUBKTNV-1" vertex="1">
          <mxGeometry x="40" y="820" width="60" height="30" as="geometry" />
        </mxCell>
        <mxCell id="jOGppjz87xmyUM8sD9id-97" value="No" style="text;html=1;strokeColor=none;fillColor=none;align=center;verticalAlign=middle;whiteSpace=wrap;rounded=0;" parent="WIyWlLk6GJQsqaUBKTNV-1" vertex="1">
          <mxGeometry x="-80" y="480" width="60" height="30" as="geometry" />
        </mxCell>
        <mxCell id="jOGppjz87xmyUM8sD9id-98" value="Si" style="text;html=1;strokeColor=none;fillColor=none;align=center;verticalAlign=middle;whiteSpace=wrap;rounded=0;" parent="WIyWlLk6GJQsqaUBKTNV-1" vertex="1">
          <mxGeometry x="-130" y="345" width="60" height="30" as="geometry" />
        </mxCell>
        <mxCell id="jOGppjz87xmyUM8sD9id-101" style="edgeStyle=orthogonalEdgeStyle;rounded=0;orthogonalLoop=1;jettySize=auto;html=1;entryX=0.154;entryY=-0.05;entryDx=0;entryDy=0;entryPerimeter=0;exitX=0.5;exitY=0;exitDx=0;exitDy=0;" parent="WIyWlLk6GJQsqaUBKTNV-1" source="jOGppjz87xmyUM8sD9id-99" target="jOGppjz87xmyUM8sD9id-0" edge="1">
          <mxGeometry relative="1" as="geometry">
            <Array as="points">
              <mxPoint x="-150" y="120" />
              <mxPoint x="375" y="120" />
            </Array>
          </mxGeometry>
        </mxCell>
        <mxCell id="jOGppjz87xmyUM8sD9id-103" style="edgeStyle=orthogonalEdgeStyle;rounded=0;orthogonalLoop=1;jettySize=auto;html=1;exitX=1;exitY=0;exitDx=0;exitDy=0;entryX=0;entryY=0.5;entryDx=0;entryDy=0;" parent="WIyWlLk6GJQsqaUBKTNV-1" source="jOGppjz87xmyUM8sD9id-99" target="jOGppjz87xmyUM8sD9id-102" edge="1">
          <mxGeometry relative="1" as="geometry" />
        </mxCell>
        <mxCell id="jOGppjz87xmyUM8sD9id-99" value="&lt;div&gt;Presiona el&amp;nbsp;&lt;/div&gt;&lt;div&gt;boton para volver&amp;nbsp;&lt;/div&gt;&lt;div&gt;al inicio?&lt;/div&gt;" style="rhombus;whiteSpace=wrap;html=1;shadow=0;fontFamily=Helvetica;fontSize=12;align=center;strokeWidth=1;spacing=6;spacingTop=-4;" parent="WIyWlLk6GJQsqaUBKTNV-1" vertex="1">
          <mxGeometry x="-210" y="790" width="120" height="100" as="geometry" />
        </mxCell>
        <mxCell id="jOGppjz87xmyUM8sD9id-104" style="edgeStyle=orthogonalEdgeStyle;rounded=0;orthogonalLoop=1;jettySize=auto;html=1;exitX=1;exitY=0.5;exitDx=0;exitDy=0;entryX=0;entryY=0.5;entryDx=0;entryDy=0;" parent="WIyWlLk6GJQsqaUBKTNV-1" source="jOGppjz87xmyUM8sD9id-102" target="jOGppjz87xmyUM8sD9id-70" edge="1">
          <mxGeometry relative="1" as="geometry" />
        </mxCell>
        <mxCell id="jOGppjz87xmyUM8sD9id-102" value="La pagina se mantiene la espera del usuario" style="rounded=1;whiteSpace=wrap;html=1;fontSize=12;glass=0;strokeWidth=1;shadow=0;" parent="WIyWlLk6GJQsqaUBKTNV-1" vertex="1">
          <mxGeometry x="-100" y="710" width="130" height="40" as="geometry" />
        </mxCell>
        <mxCell id="jOGppjz87xmyUM8sD9id-105" value="No" style="text;html=1;strokeColor=none;fillColor=none;align=center;verticalAlign=middle;whiteSpace=wrap;rounded=0;" parent="WIyWlLk6GJQsqaUBKTNV-1" vertex="1">
          <mxGeometry x="-140" y="770" width="60" height="30" as="geometry" />
        </mxCell>
        <mxCell id="jOGppjz87xmyUM8sD9id-106" value="Si" style="text;html=1;strokeColor=none;fillColor=none;align=center;verticalAlign=middle;whiteSpace=wrap;rounded=0;" parent="WIyWlLk6GJQsqaUBKTNV-1" vertex="1">
          <mxGeometry x="-190" y="670" width="60" height="30" as="geometry" />
        </mxCell>
        <mxCell id="jOGppjz87xmyUM8sD9id-109" value="Si" style="text;html=1;strokeColor=none;fillColor=none;align=center;verticalAlign=middle;whiteSpace=wrap;rounded=0;" parent="WIyWlLk6GJQsqaUBKTNV-1" vertex="1">
          <mxGeometry x="1260" y="780" width="60" height="30" as="geometry" />
        </mxCell>
        <mxCell id="jOGppjz87xmyUM8sD9id-114" value="" style="edgeStyle=orthogonalEdgeStyle;rounded=0;orthogonalLoop=1;jettySize=auto;html=1;" parent="WIyWlLk6GJQsqaUBKTNV-1" source="jOGppjz87xmyUM8sD9id-110" target="jOGppjz87xmyUM8sD9id-111" edge="1">
          <mxGeometry relative="1" as="geometry" />
        </mxCell>
        <mxCell id="jOGppjz87xmyUM8sD9id-110" value="&lt;div&gt;Presiona el&amp;nbsp;&lt;/div&gt;&lt;div&gt;boton para volver&amp;nbsp;&lt;/div&gt;&lt;div&gt;al inicio?&lt;/div&gt;" style="rhombus;whiteSpace=wrap;html=1;shadow=0;fontFamily=Helvetica;fontSize=12;align=center;strokeWidth=1;spacing=6;spacingTop=-4;" parent="WIyWlLk6GJQsqaUBKTNV-1" vertex="1">
          <mxGeometry x="1241" y="440" width="120" height="100" as="geometry" />
        </mxCell>
        <mxCell id="jOGppjz87xmyUM8sD9id-115" style="edgeStyle=orthogonalEdgeStyle;rounded=0;orthogonalLoop=1;jettySize=auto;html=1;exitX=0.5;exitY=1;exitDx=0;exitDy=0;entryX=0;entryY=0;entryDx=0;entryDy=0;" parent="WIyWlLk6GJQsqaUBKTNV-1" source="jOGppjz87xmyUM8sD9id-111" target="jOGppjz87xmyUM8sD9id-84" edge="1">
          <mxGeometry relative="1" as="geometry" />
        </mxCell>
        <mxCell id="jOGppjz87xmyUM8sD9id-111" value="La pagina se mantiene la espera del usuario" style="rounded=1;whiteSpace=wrap;html=1;fontSize=12;glass=0;strokeWidth=1;shadow=0;" parent="WIyWlLk6GJQsqaUBKTNV-1" vertex="1">
          <mxGeometry x="1050" y="470" width="130" height="40" as="geometry" />
        </mxCell>
        <mxCell id="jOGppjz87xmyUM8sD9id-116" style="edgeStyle=orthogonalEdgeStyle;rounded=0;orthogonalLoop=1;jettySize=auto;html=1;exitX=0.5;exitY=0;exitDx=0;exitDy=0;entryX=0.854;entryY=-0.115;entryDx=0;entryDy=0;entryPerimeter=0;" parent="WIyWlLk6GJQsqaUBKTNV-1" source="jOGppjz87xmyUM8sD9id-110" target="jOGppjz87xmyUM8sD9id-0" edge="1">
          <mxGeometry relative="1" as="geometry">
            <Array as="points">
              <mxPoint x="1301" y="100" />
              <mxPoint x="466" y="100" />
            </Array>
          </mxGeometry>
        </mxCell>
        <mxCell id="jOGppjz87xmyUM8sD9id-117" value="Si" style="text;html=1;strokeColor=none;fillColor=none;align=center;verticalAlign=middle;whiteSpace=wrap;rounded=0;" parent="WIyWlLk6GJQsqaUBKTNV-1" vertex="1">
          <mxGeometry x="1280" y="400" width="60" height="30" as="geometry" />
        </mxCell>
        <mxCell id="jOGppjz87xmyUM8sD9id-119" value="No" style="text;html=1;strokeColor=none;fillColor=none;align=center;verticalAlign=middle;whiteSpace=wrap;rounded=0;" parent="WIyWlLk6GJQsqaUBKTNV-1" vertex="1">
          <mxGeometry x="1280" y="560" width="60" height="30" as="geometry" />
        </mxCell>
        <mxCell id="jOGppjz87xmyUM8sD9id-120" value="No" style="text;html=1;strokeColor=none;fillColor=none;align=center;verticalAlign=middle;whiteSpace=wrap;rounded=0;" parent="WIyWlLk6GJQsqaUBKTNV-1" vertex="1">
          <mxGeometry x="1181" y="470" width="60" height="30" as="geometry" />
        </mxCell>
        <mxCell id="6C4JWHhxTdaV8eO6Sy8S-9" style="edgeStyle=orthogonalEdgeStyle;rounded=0;orthogonalLoop=1;jettySize=auto;html=1;exitX=0.5;exitY=0;exitDx=0;exitDy=0;entryX=0;entryY=0.5;entryDx=0;entryDy=0;" parent="WIyWlLk6GJQsqaUBKTNV-1" source="6C4JWHhxTdaV8eO6Sy8S-6" target="jOGppjz87xmyUM8sD9id-111" edge="1">
          <mxGeometry relative="1" as="geometry" />
        </mxCell>
        <mxCell id="6C4JWHhxTdaV8eO6Sy8S-11" style="edgeStyle=orthogonalEdgeStyle;rounded=0;orthogonalLoop=1;jettySize=auto;html=1;exitX=0;exitY=0.5;exitDx=0;exitDy=0;entryX=1;entryY=0.5;entryDx=0;entryDy=0;fillColor=#d5e8d4;strokeColor=#82b366;" parent="WIyWlLk6GJQsqaUBKTNV-1" source="6C4JWHhxTdaV8eO6Sy8S-6" target="jOGppjz87xmyUM8sD9id-38" edge="1">
          <mxGeometry relative="1" as="geometry">
            <Array as="points">
              <mxPoint x="160" y="600" />
              <mxPoint x="160" y="305" />
            </Array>
          </mxGeometry>
        </mxCell>
        <mxCell id="6C4JWHhxTdaV8eO6Sy8S-6" value="&lt;br&gt;&lt;div&gt;El usuario hace&amp;nbsp;&lt;/div&gt;&lt;div&gt;click en el boton Ranking&lt;/div&gt;" style="rhombus;whiteSpace=wrap;html=1;shadow=0;fontFamily=Helvetica;fontSize=12;align=center;strokeWidth=1;spacing=6;spacingTop=-4;" parent="WIyWlLk6GJQsqaUBKTNV-1" vertex="1">
          <mxGeometry x="950" y="550" width="120" height="100" as="geometry" />
        </mxCell>
        <mxCell id="6C4JWHhxTdaV8eO6Sy8S-10" value="No" style="text;html=1;strokeColor=none;fillColor=none;align=center;verticalAlign=middle;whiteSpace=wrap;rounded=0;" parent="WIyWlLk6GJQsqaUBKTNV-1" vertex="1">
          <mxGeometry x="990" y="465" width="60" height="30" as="geometry" />
        </mxCell>
        <mxCell id="6C4JWHhxTdaV8eO6Sy8S-12" value="Si" style="text;html=1;strokeColor=none;fillColor=none;align=center;verticalAlign=middle;whiteSpace=wrap;rounded=0;" parent="WIyWlLk6GJQsqaUBKTNV-1" vertex="1">
          <mxGeometry x="850" y="580" width="60" height="30" as="geometry" />
        </mxCell>
        <mxCell id="6C4JWHhxTdaV8eO6Sy8S-13" value="Si" style="text;html=1;strokeColor=none;fillColor=none;align=center;verticalAlign=middle;whiteSpace=wrap;rounded=0;" parent="WIyWlLk6GJQsqaUBKTNV-1" vertex="1">
          <mxGeometry x="880" y="710" width="60" height="30" as="geometry" />
        </mxCell>
        <mxCell id="6C4JWHhxTdaV8eO6Sy8S-14" value="No" style="text;html=1;strokeColor=none;fillColor=none;align=center;verticalAlign=middle;whiteSpace=wrap;rounded=0;" parent="WIyWlLk6GJQsqaUBKTNV-1" vertex="1">
          <mxGeometry x="300" y="705" width="60" height="30" as="geometry" />
        </mxCell>
        <mxCell id="6C4JWHhxTdaV8eO6Sy8S-15" value="Si" style="text;html=1;strokeColor=none;fillColor=none;align=center;verticalAlign=middle;whiteSpace=wrap;rounded=0;" parent="WIyWlLk6GJQsqaUBKTNV-1" vertex="1">
          <mxGeometry x="600" y="640" width="60" height="30" as="geometry" />
        </mxCell>
      </root>
    </mxGraphModel>
  </diagram>
</mxfile>
